<svg width="661" height="538" viewBox="0 0 661 538" fill="none" xmlns="http://www.w3.org/2000/svg">
<g clip-path="url(#clip0)">
<path d="M642.803 351.288L641.463 326.829L588.805 319.221L580.588 342.289C575.555 342.84 570.532 343.696 565.562 344.861L577.972 403.677C596.593 398.86 616.631 402.521 632.379 413.835L661.003 360.72C655.172 357.056 649.081 353.911 642.803 351.288Z" fill="#EC4D10"/>
<path d="M214.648 360.797V358.263C241.071 358.263 264.503 342.419 274.342 317.9L276.692 318.844C266.467 344.329 242.113 360.797 214.648 360.797Z" fill="#5D1398"/>
<path d="M214.648 379.519V376.985C234.134 376.985 252.489 370.606 267.731 358.538L269.302 360.524C253.611 372.953 234.711 379.519 214.648 379.519Z" fill="#EC4D10"/>
<path d="M277.005 383.874L275.586 381.775C292.709 370.207 306.149 354.126 314.45 335.27L316.769 336.29C308.274 355.586 294.524 372.038 277.005 383.874Z" fill="#F9B21E"/>
<path d="M430.545 87.7329L428.668 89.4357L473.218 138.533L475.095 136.831L430.545 87.7329Z" fill="#98A6B1"/>
<path d="M152.192 428.459L107.148 396.405L117.221 373.837C110.065 365.225 104.085 355.665 99.4291 345.406L74.701 344.62L65.5186 290.112L88.6282 281.269C89.6608 270.053 92.1757 259.065 96.116 248.574L79.2082 230.555L111.256 185.511L133.824 195.586C142.433 188.434 151.993 182.454 162.265 177.795L163.05 153.076L217.559 143.884L226.399 166.991C237.618 168.02 248.609 170.538 259.1 174.478L277.119 157.571L322.163 189.619L312.088 212.187C319.246 220.812 325.229 230.371 329.879 240.627L354.598 241.413L363.78 295.921L340.68 304.761C340.227 309.69 339.473 314.641 338.441 319.487L338.168 320.766L277.36 305.784L277.575 304.609C282.045 280.255 271.902 255.248 251.739 240.899C223.004 220.451 182.986 227.194 162.54 255.929C142.095 284.661 148.838 324.675 177.57 345.127C183.575 349.4 190.17 352.574 197.164 354.557L198.279 354.873L186.619 416.455L185.33 416.151C180.23 414.947 175.147 413.398 170.212 411.548L152.192 428.459ZM110.309 395.543L151.971 425.194L169.632 408.622L170.373 408.904C175.023 410.681 179.809 412.182 184.624 413.376L195.358 356.673C188.494 354.598 182.02 351.411 176.097 347.196C146.225 325.933 139.215 284.335 160.472 254.462C181.729 224.587 223.33 217.578 253.205 238.837C273.841 253.522 284.379 278.947 280.271 303.894L336.227 317.678C337.155 313.082 337.826 308.404 338.222 303.751L338.289 302.959L360.933 294.296L352.438 243.88L328.207 243.11L327.884 242.385C323.177 231.831 317.035 222.012 309.633 213.21L309.123 212.602L318.999 190.483L277.335 160.842L259.673 177.418L258.932 177.133C248.194 173.021 236.909 170.437 225.385 169.448L224.594 169.382L215.931 146.732L165.515 155.233L164.745 179.464L164.02 179.787C153.447 184.503 143.631 190.645 134.844 198.038L134.236 198.548L112.115 188.672L82.477 230.336L99.0522 247.998L98.7672 248.739C94.6558 259.477 92.0712 270.759 91.0829 282.279L91.0164 283.071L68.3661 291.743L76.8611 342.159L101.098 342.929L101.421 343.654C106.131 354.218 112.273 364.031 119.672 372.823L120.182 373.431L110.309 395.543Z" fill="#5D1398"/>
<path d="M357.942 268.874L353.518 242.642L329.04 241.866C324.355 231.359 318.188 221.413 310.605 212.389L320.579 190.049L277.227 159.199L259.391 175.939C254.887 174.212 250.319 172.768 245.704 171.593L234.682 230.919C240.88 232.918 246.883 235.889 252.47 239.864C273.799 255.039 283.254 280.683 278.823 304.831L337.199 319.211C338.282 314.121 339.046 308.99 339.486 303.849L362.352 295.098L357.942 268.874ZM161.507 255.197C166.572 248.074 172.812 242.274 179.774 237.881L149.984 185.672C144.416 189.02 139.079 192.821 134.03 197.068L111.69 187.094L96.2677 208.769L80.8455 230.444L97.5854 248.286C93.3664 259.302 90.8007 270.711 89.8188 282.168L66.9404 290.926L71.3653 317.159L75.7839 343.391L100.259 344.167C104.95 354.674 111.104 364.613 118.7 373.637L108.725 395.977L130.4 411.412L152.081 426.834L169.917 410.095C175.074 412.062 180.316 413.677 185.618 414.925L196.815 355.786C189.837 353.812 183.075 350.616 176.828 346.176C147.485 325.274 140.621 284.547 161.507 255.197Z" fill="#5D1398"/>
<path d="M205.168 398.068H202.469V520.752H205.168V398.068Z" fill="#706865"/>
<path d="M144.533 398.068H141.834V520.752H144.533V398.068Z" fill="#706865"/>
<path d="M208.962 500.503H136.352C131.876 500.503 128.25 496.876 128.25 492.4V354.915C128.25 350.439 131.876 346.812 136.352 346.812H208.959C213.435 346.812 217.061 350.439 217.061 354.915V492.4C217.061 496.876 213.435 500.503 208.962 500.503Z" fill="#E0E0E0"/>
<path d="M206.621 494.497H138.693C134.271 494.497 130.688 490.915 130.688 486.493V357.293C130.688 352.872 134.271 349.289 138.693 349.289H206.621C211.043 349.289 214.626 352.872 214.626 357.293V486.493C214.626 490.915 211.04 494.497 206.621 494.497Z" fill="white"/>
<path d="M185.888 345.65H159.424V351.627H185.888V345.65Z" fill="#E0E0E0"/>
<path d="M149.522 128.072C151.239 123.59 152.284 118.944 152.683 114.278L161.996 110.715L160.197 100.034L158.397 89.3534L148.433 89.0367C146.526 84.7575 144.017 80.7126 140.926 77.0384L144.987 67.9415L136.162 61.6637L127.338 55.3858L120.075 62.2021C115.593 60.4854 110.946 59.4401 106.28 59.041L102.717 49.7319L92.0365 51.531L81.3559 53.3301L81.0391 63.2949C76.7599 65.2017 72.7151 67.7103 69.0409 70.8017L59.944 66.7411L53.6661 75.5656L47.3883 84.39L54.2046 91.653C52.4878 96.1349 51.4426 100.782 51.0435 105.447L41.7344 109.011L43.5335 119.691L45.3326 130.372L55.2973 130.688C57.2041 134.968 59.7128 139.013 62.8042 142.687L58.7435 151.784L67.568 158.061L76.3925 164.342L83.6554 157.526C88.1373 159.243 92.784 160.288 97.4496 160.687L101.013 169.996L111.694 168.197L122.374 166.398L122.691 156.433C126.97 154.527 131.015 152.018 134.689 148.927L143.786 152.987L150.064 144.163L156.342 135.338L149.522 128.072ZM86.4681 131.496C74.5205 122.992 71.7268 106.413 80.2283 94.4657C88.7328 82.5181 105.311 79.7244 117.259 88.2258C129.206 96.7304 132 113.309 123.499 125.256C114.997 137.207 98.4188 140.001 86.4681 131.496Z" fill="#F9B21E"/>
<path d="M171.447 417.158L169.689 412.565C167.899 412.353 166.142 411.951 164.444 411.365L160.861 414.728L150.922 407.656L152.924 403.171C151.812 401.761 150.856 400.231 150.07 398.609L145.154 398.454L143.127 386.427L147.72 384.669C147.932 382.88 148.334 381.122 148.92 379.424L145.556 375.842L152.629 365.902L157.118 367.904C158.527 366.792 160.057 365.836 161.679 365.05L161.834 360.135L173.864 358.107L175.622 362.7C177.411 362.912 179.169 363.315 180.867 363.901L184.449 360.537L194.389 367.61L192.387 372.098C193.499 373.507 194.455 375.037 195.241 376.659L200.153 376.814L202.181 388.841L197.588 390.599C197.376 392.389 196.973 394.146 196.387 395.844L199.751 399.427L192.678 409.366L188.193 407.364C186.784 408.476 185.254 409.433 183.632 410.218L183.477 415.131L171.447 417.158ZM163.858 408.438L164.599 408.723C166.553 409.471 168.606 409.943 170.703 410.12L171.495 410.186L173.072 414.31L181.01 412.974L181.149 408.561L181.874 408.238C183.797 407.38 185.583 406.265 187.183 404.919L187.791 404.409L191.82 406.208L196.486 399.651L193.467 396.433L193.752 395.692C194.5 393.738 194.972 391.685 195.152 389.589L195.219 388.797L199.343 387.219L198.006 379.282L193.594 379.142L193.271 378.417C192.412 376.494 191.297 374.708 189.951 373.108L189.441 372.5L191.24 368.471L184.684 363.806L181.466 366.824L180.724 366.539C178.77 365.792 176.718 365.32 174.621 365.139L173.829 365.073L172.252 360.949L164.314 362.285L164.175 366.697L163.449 367.021C161.527 367.879 159.74 368.994 158.141 370.34L157.532 370.85L153.503 369.051L148.838 375.607L151.856 378.826L151.571 379.567C150.824 381.521 150.352 383.574 150.171 385.67L150.105 386.462L145.981 388.04L147.317 395.977L151.73 396.117L152.053 396.842C152.911 398.765 154.026 400.548 155.372 402.151L155.882 402.759L154.083 406.788L160.64 411.453L163.858 408.438Z" fill="#E0E0E0"/>
<path d="M178.374 400.06L177.316 397.757C179.077 396.95 180.604 395.683 181.735 394.093C182.875 392.49 183.572 390.615 183.752 388.667L186.277 388.901C186.055 391.293 185.2 393.595 183.8 395.562C182.412 397.513 180.537 399.069 178.374 400.06ZM164.767 398.806L164.71 398.765C161.124 396.215 158.977 392.043 158.977 387.622C158.977 387.197 158.996 386.77 159.037 386.345L161.558 386.583C161.526 386.928 161.511 387.276 161.511 387.625C161.511 391.229 163.262 394.628 166.195 396.715L164.767 398.806ZM179.106 378.544C177.211 377.198 174.985 376.488 172.669 376.488C171.073 376.488 169.464 376.84 168.016 377.502L166.962 375.196C168.739 374.382 170.712 373.954 172.669 373.954C175.514 373.954 178.247 374.825 180.572 376.475L179.106 378.544Z" fill="#E0E0E0"/>
<path d="M190.227 444.816L189.258 442.285C188.523 442.178 187.801 442.013 187.097 441.791L185.121 443.644L179.109 439.365L180.215 436.891C179.774 436.299 179.378 435.668 179.039 435.013L176.331 434.927L175.105 427.652L177.636 426.682C177.744 425.948 177.909 425.225 178.13 424.522L176.277 422.546L180.557 416.534L183.03 417.639C183.623 417.199 184.253 416.803 184.909 416.464L184.994 413.756L192.27 412.53L193.239 415.061C193.974 415.169 194.696 415.333 195.399 415.555L197.376 413.702L203.388 417.981L202.282 420.455C202.722 421.048 203.118 421.678 203.457 422.334L206.165 422.419L207.391 429.695L204.86 430.664C204.753 431.399 204.588 432.121 204.366 432.824L206.219 434.801L201.94 440.812L199.466 439.707C198.874 440.147 198.244 440.543 197.588 440.882L197.502 443.59L190.227 444.816ZM186.499 438.871L187.24 439.156C188.209 439.526 189.232 439.761 190.274 439.849L191.066 439.916L191.852 441.968L195.035 441.433L195.105 439.238L195.83 438.915C196.783 438.491 197.673 437.933 198.468 437.265L199.077 436.755L201.082 437.648L202.954 435.016L201.452 433.416L201.737 432.675C202.108 431.706 202.342 430.686 202.431 429.641L202.497 428.849L204.55 428.063L204.015 424.88L201.82 424.81L201.497 424.085C201.069 423.129 200.515 422.242 199.846 421.447L199.336 420.839L200.233 418.834L197.601 416.962L196.001 418.463L195.26 418.178C194.291 417.807 193.268 417.573 192.225 417.481L191.434 417.414L190.648 415.362L187.465 415.897L187.395 418.092L186.67 418.415C185.716 418.84 184.826 419.397 184.031 420.066L183.423 420.576L181.418 419.679L179.546 422.311L181.048 423.911L180.763 424.652C180.392 425.621 180.158 426.644 180.069 427.687L180.002 428.478L177.95 429.264L178.485 432.447L180.68 432.517L181.003 433.242C181.431 434.199 181.985 435.086 182.653 435.881L183.163 436.489L182.267 438.494L184.899 440.366L186.499 438.871ZM191.231 436.441C189.631 436.441 188.073 435.947 186.743 435C183.252 432.517 182.435 427.655 184.918 424.164C187.401 420.674 192.26 419.853 195.754 422.34C199.245 424.823 200.062 429.685 197.578 433.176C196.375 434.867 194.585 435.988 192.539 436.33C192.102 436.403 191.665 436.441 191.231 436.441ZM191.253 423.436C189.615 423.436 188 424.199 186.98 425.634C185.308 427.984 185.859 431.259 188.209 432.935C189.349 433.746 190.737 434.066 192.115 433.831C193.492 433.6 194.699 432.843 195.51 431.706C197.183 429.353 196.631 426.081 194.281 424.405C193.363 423.749 192.305 423.436 191.253 423.436Z" fill="#E0E0E0"/>
<path d="M125.415 452.766C125.415 452.766 126.023 453.764 126.099 454.578C126.159 455.221 126.701 456.187 126.935 456.716C127.17 457.248 127.927 459.655 127.952 460.283C127.965 460.539 127.391 462.155 127.474 462.671C127.553 463.187 127.851 464.21 127.385 464.28C126.922 464.346 126.393 463.51 126.393 463.51C126.393 463.51 126.438 463.985 126.045 464.169C125.282 464.521 124.879 464.21 124.879 464.21C124.879 464.21 124.598 464.733 124.246 464.803C123.467 464.958 123.084 464.644 123.084 464.644C123.084 464.644 122.741 464.939 122.203 464.926C121.516 464.913 121.224 464.318 121.224 464.318C121.224 464.318 120.353 464.495 120.1 464.087C119.846 463.681 119.891 463.247 119.786 462.877C119.682 462.509 119.761 459.177 120.892 456.783C122.022 454.385 120.603 452.047 120.603 452.047L125.415 452.766Z" fill="#F4B49A"/>
<path d="M126.52 463.197C126.52 463.197 126.596 460.21 125.811 459.573C125.025 458.936 124.937 460.017 124.937 460.017C124.937 460.017 125.044 458.952 124.183 458.807C123.324 458.664 123.286 459.928 123.286 459.928C123.286 459.928 123.147 459.108 122.244 459.275C121.342 459.443 121.557 460.492 121.557 460.492C121.557 460.492 120.695 459.462 120.135 460.451C119.191 462.12 120.1 464.087 120.1 464.087C120.1 464.087 120.366 464.54 121.224 464.318C121.224 464.318 121.798 465.474 123.084 464.644C123.084 464.644 124.401 465.37 124.88 464.207C124.883 464.207 126.333 464.894 126.52 463.197Z" fill="#DB9C7C"/>
<path d="M135.551 409.73C135.551 409.73 130.435 426.774 128.709 433.062C128.167 435.035 126.856 453.865 126.625 454.622C126.394 455.379 119.907 456.418 119.907 456.418C119.907 456.418 120.692 432.862 120.765 431.576C120.838 430.29 127.924 403.985 129.982 403.047C131.525 402.344 132.342 402.927 134.287 404.368C137.014 406.398 135.551 409.73 135.551 409.73Z" fill="#02182B"/>
<path d="M197.121 378.181L185.415 385.842L185.984 386.712L197.69 379.05L197.121 378.181Z" fill="#4DA8F2"/>
<path d="M198.947 382.598C198.947 382.598 198.836 383.26 198.646 383.526C198.646 383.526 198.263 383.982 198.01 384.324C197.93 384.432 197.864 384.53 197.826 384.597C197.671 384.875 197.417 385.534 196.86 386.101C196.302 386.668 194.133 388.464 194.133 388.464L192.273 386.884L190.341 386.019C190.341 386.019 191.425 381.318 191.881 380.729C191.925 380.672 191.973 380.618 192.02 380.568C192.457 380.108 192.973 379.95 193.23 379.735C193.325 379.655 194.32 378.94 194.671 379.031C195.162 379.158 195.45 379.446 195.564 379.776C195.564 379.776 196.515 380.067 196.888 380.628C196.888 380.628 197.775 380.869 198.038 381.695C198.035 381.695 198.909 382.044 198.947 382.598Z" fill="#EFAA88"/>
<path d="M131.401 526.108C131.401 526.108 130.936 529.342 130.875 529.83C130.818 530.315 125.69 529.545 125.69 529.545L125.275 525.693C125.275 525.693 130.758 525.652 131.401 526.108Z" fill="#424773"/>
<path d="M130.929 529.421C130.929 529.421 132.554 531.373 134.125 532.221C135.696 533.07 138.167 533.409 139.095 534.287C139.767 534.923 141.537 537.657 135.012 537.6C128.487 537.546 125.339 537.986 124.639 536.938C123.939 535.889 125.649 529.2 125.649 529.2C125.649 529.2 127.198 529.757 130.929 529.421Z" fill="#292C47"/>
<path d="M168.14 526.108C168.14 526.108 167.675 529.342 167.615 529.83C167.558 530.315 162.43 529.545 162.43 529.545L162.015 525.693C162.015 525.693 167.501 525.652 168.14 526.108Z" fill="#424773"/>
<path d="M167.672 529.421C167.672 529.421 169.297 531.373 170.868 532.221C172.439 533.07 178.222 533.77 179.15 534.648C179.822 535.281 180.937 537.84 171.755 537.6C165.23 537.429 162.081 537.986 161.381 536.938C160.681 535.889 162.392 529.2 162.392 529.2C162.392 529.2 163.849 529.795 167.672 529.421Z" fill="#292C47"/>
<path d="M135.646 442.963C135.646 442.963 130.828 450.619 131.186 457.536C131.544 464.457 129.438 472.012 128.715 479.24C127.908 487.298 124.607 506.375 124.487 510.686C124.367 514.997 125 528.759 125 528.759L131.61 528.911C131.61 528.911 137.163 495.562 138.601 492.157C140.039 488.755 147.169 464.492 147.41 461.771C147.647 459.05 135.646 442.963 135.646 442.963Z" fill="#292C47"/>
<path d="M161.011 444.002C161.011 444.002 164.64 462.969 165.122 467.203C165.6 471.438 165.92 487.7 166.161 490.345C166.402 492.993 168.4 524.902 169.037 528.915H160.586C160.586 528.915 154.099 505.659 154.099 494.656C154.099 483.652 149.088 470.735 145.851 463.475C142.617 456.216 135.212 456.045 133.223 442.573C133.223 442.573 158.318 439.729 161.011 444.002Z" fill="#292C47"/>
<path d="M143.685 378.607C143.685 378.607 150.152 376.19 153.133 381.116C156.114 386.038 155.829 395.895 152.569 397.105C149.31 398.318 144.413 397.685 142.744 394.603C141.075 391.521 139.567 387.07 139.64 384.093C139.713 381.116 141.987 379.465 143.685 378.607Z" fill="#F4B49A"/>
<path d="M151.866 397.33C151.866 397.33 151.597 399.075 152.041 399.937C152.484 400.795 143.663 400.82 143.663 400.82C143.663 400.82 142.947 396.142 141.588 392.189C140.232 388.233 151.866 397.33 151.866 397.33Z" fill="#F4B49A"/>
<path d="M141.591 392.186C141.591 392.186 142.199 393.19 144.686 392.8C147.172 392.411 150.203 389.104 151.242 388.74C152.281 388.375 152.291 387.767 152.291 387.767L152.94 388.718L154.042 388.787C154.042 388.787 153.038 385.829 154.552 384.622C156.069 383.415 152.978 375.047 145.005 377.834C145.005 377.834 138.883 379.522 139.105 383.003C139.329 386.488 140.219 390.453 141.591 392.186Z" fill="#02182B"/>
<path d="M152.566 399.832C152.566 399.832 152.538 398.188 151.794 398.03C151.049 397.871 143.571 397.152 142.659 397.514V399.427C142.659 399.43 144.42 400.513 152.566 399.832Z" fill="#E0E0E0"/>
<path d="M152.126 386.503C151.987 385.921 150.501 384.251 149.934 386.038C149.367 387.824 150.792 390.228 151.591 390.023C152.383 389.817 152.478 387.983 152.126 386.503Z" fill="#F4B49A"/>
<path d="M164.935 402.322C159.807 401.647 152.566 399.832 152.566 399.832L142.655 399.427C142.655 399.427 133.562 401.428 129.979 403.047C129.64 403.199 129.637 411.162 128.706 413.249L131.677 419.515C131.677 419.515 133.394 431.925 133.749 437.442C133.913 439.976 130.211 461.201 130.211 461.201C130.211 461.201 134.176 462.37 140.939 463.114C147.701 463.859 164.599 462.845 164.707 462.047C164.815 461.249 161.435 432.305 161.286 430.803C161.058 428.504 162.078 416.277 162.078 416.277C163.64 415.067 177.348 408.701 181.089 405.385C182.09 404.498 186.315 400.383 187.516 398.964C191.77 393.934 195.254 389.62 195.678 388.692C196.16 388.163 190.911 385.344 190.449 385.189C190.043 385.053 184.44 392.55 182.226 394.945C181.238 396.012 177.139 398.996 177.139 398.996C177.139 398.996 168.141 402.505 164.935 402.322Z" fill="#02182B"/>
<path d="M141.844 379.187C141.844 379.187 133.599 379.833 141.591 392.186L141.844 379.187Z" fill="#02182B"/>
<path d="M197.699 379.06L198.374 378.031L197.129 378.192L197.699 379.06Z" fill="#DFE1E8"/>
<path d="M429.587 90.1168C433.169 90.1168 436.083 87.2027 436.083 83.6204H434.553C434.553 86.3602 432.323 88.5869 429.587 88.5869C426.85 88.5869 424.62 86.3602 424.62 83.6204C424.62 80.8805 426.85 78.6538 429.587 78.6538H430.353V0H428.823V77.1683C425.599 77.5484 423.09 80.2977 423.09 83.6204C423.09 87.2027 426.004 90.1168 429.587 90.1168Z" fill="#385369"/>
<path d="M427.825 76.8361H431.484V39.6947H427.825V76.8361Z" fill="#98A6B1"/>
<path d="M386.044 138.534L384.166 136.83L429.692 86.7149L431.358 88.6502L386.044 138.534Z" fill="#98A6B1"/>
<path d="M504.715 186.705C509.913 182.802 514.756 178.529 519.219 173.943L477.469 130.676C471.217 137.479 463.406 143.057 454.296 146.808C428.07 157.602 398.872 150.061 380.935 130.112L339.958 174.203C344.282 178.621 348.906 182.682 353.787 186.366L349.02 210.388L373.574 220.622L398.131 230.849L411.824 210.549C423.214 212.18 434.908 212.253 446.593 210.641L460.191 230.982L484.789 220.85L509.387 210.717L504.715 186.705Z" fill="#4392F1"/>
<path d="M383.019 344.221H342.067V373.903V380.156L348.32 373.903H383.019V344.221Z" fill="#4392F1"/>
<path d="M342.501 411.558C342.501 411.558 343.385 409.366 343.53 409.037C343.676 408.707 344.528 408.166 345.561 407.633C346.593 407.101 348.228 406.842 348.402 406.937C348.576 407.035 348.798 407.051 349.026 407.513C349.251 407.976 349.187 408.489 349.187 408.489C349.187 408.489 349.732 408.929 349.609 409.556C349.609 409.556 350.103 409.993 349.843 410.684C349.843 410.684 350.315 411.124 350.084 411.609C350.084 411.609 349.232 412.15 348.972 412.442C348.715 412.733 346.863 413.737 344.94 414.428C344.937 414.431 342.9 414.466 342.501 411.558Z" fill="#F4B49A"/>
<path d="M345.637 410.361C345.637 410.361 345.659 411.548 345.494 411.884C345.333 412.22 347.901 412.967 347.901 412.967C347.901 412.967 347.081 410.373 345.637 410.361Z" fill="#CF8C6C"/>
<path d="M297.688 526.409L298.809 522.912L303.557 523.682L302.848 526.834L297.688 526.409Z" fill="#555C94"/>
<path d="M336.603 525.994L336.869 527.917L342.067 527.049L341.791 524.179L336.603 525.994Z" fill="#555C94"/>
<path d="M325.349 472.164C325.349 472.164 324.583 476.335 323.696 480.966C323.54 481.774 323.385 482.594 323.224 483.408C322.356 487.868 321.478 492.163 321.155 493.05C320.417 495.067 304.504 524.23 304.504 524.23C304.504 524.23 297.995 523.736 297.754 522.897C297.754 522.897 311.096 491.232 311.02 490.079C310.947 488.926 312.651 456.466 312.651 456.466C312.651 456.466 324.994 470.289 325.349 472.164Z" fill="#02182B"/>
<path d="M332.618 454.607C332.618 454.607 338.846 486.493 339.378 488.935C339.91 491.377 342.27 524.04 342.27 524.04C342.27 524.04 340.87 526.925 335.7 525.839C335.7 525.839 328.653 490.744 328.057 489.569C325.751 485.004 314.437 462.896 313.341 459.738C312.246 456.583 312.565 452.899 312.565 452.899C312.565 452.899 320.975 448.177 332.618 454.607Z" fill="#02182B"/>
<path d="M330.002 413.303C330.002 413.303 332.733 420.113 333.42 419.91C334.107 419.708 341.956 410.494 341.956 410.494C341.956 410.494 345.548 414.976 345.067 415.489C344.395 416.205 335.127 431.617 333.851 431.339C332.574 431.06 326.876 421.64 326.876 421.64C326.876 421.64 326.553 414.535 330.002 413.303Z" fill="#DEB135"/>
<path d="M318.321 400.304C318.321 400.304 325.403 405.717 327.358 407.865C329.312 410.012 334.706 418.916 334.32 421.595C332.828 431.864 332.118 440.616 332.074 447.622C332.036 453.726 333.981 455.284 332.768 455.373C331.377 455.478 313.554 461.936 310.916 462.721C310.916 462.721 312.645 441.23 313.519 438.75C314.4 436.27 310.722 410.281 318.321 400.304Z" fill="#F9B21E"/>
<path d="M363.938 390.035L365.528 398.042L367.118 406.05C367.118 406.05 358.025 403.205 347.705 405.252L347.005 401.72L346.299 398.169C356.615 396.12 363.938 390.035 363.938 390.035Z" fill="#E0E0E0"/>
<path d="M336.87 527.917C336.87 527.917 340.791 527.157 340.93 527.04C341.066 526.919 341.909 525.37 342.517 525.643C343.122 525.912 343.132 527.8 343.724 528.12C344.316 528.439 349.001 531.604 349.574 532.177C350.151 532.754 353.695 532.415 354.104 533.416C354.509 534.416 354.544 536.779 349.254 536.225C343.965 535.668 337.921 536.529 336.784 535.905C335.644 535.272 336.505 529.437 336.87 527.917Z" fill="#FFB355"/>
<path d="M297.625 526.324C297.625 526.324 301.619 526.203 301.774 526.105C301.929 526.01 303.006 524.613 303.564 524.978C304.118 525.342 303.823 527.204 304.359 527.616C304.894 528.025 309.009 531.898 309.484 532.557C309.959 533.219 313.516 533.45 313.757 534.505C313.997 535.56 313.652 537.898 308.521 536.501C303.386 535.104 297.286 534.987 296.263 534.188C295.237 533.39 297.023 527.768 297.625 526.324Z" fill="#FFB355"/>
<path d="M328.644 456.086C328.644 456.086 329.122 458.027 329.888 458.449C330.655 458.87 326.316 463.019 326.316 463.019C326.316 463.019 324.555 459.171 324.602 458.784C324.65 458.395 328.644 456.086 328.644 456.086Z" fill="#F4B49A"/>
<path d="M315.176 408.698C315.176 408.698 310.092 432.878 309.677 435.352C309.284 437.696 324.58 460.067 324.58 460.067L329.667 457.049C329.667 457.049 317.323 434.604 317.342 433.581C317.361 432.558 323.268 413.066 323.268 413.066C323.268 413.066 325.736 408.821 321.358 406.759C316.975 404.697 315.176 408.698 315.176 408.698Z" fill="#FFD255"/>
<path d="M331.627 457.752C331.627 457.752 333.281 465.974 333.179 468.493C333.078 471.011 323.69 464.53 324.165 462.025L331.627 457.752Z" fill="#073551"/>
<path d="M318.321 400.304C318.321 400.304 331.222 414.396 330.427 412.834C327.595 407.266 325.615 406.325 325.657 405.286C325.688 404.491 325.945 402.195 325.999 401.419C326.1 399.943 326.262 398.723 326.262 398.723C326.262 398.723 319.857 389.728 320.139 392.791C320.421 395.854 318.321 400.304 318.321 400.304Z" fill="#F4B49A"/>
<path d="M330.607 383.716C330.607 383.716 332.381 387.878 332.406 388.854C332.432 389.829 332.185 390.577 332.337 391.698C332.492 392.857 333.468 395.299 333.347 395.974C333.201 396.788 331.485 396.364 331.247 397.707C331.01 399.05 329.762 401.574 329.141 401.625C327.544 401.755 321.428 399.262 321.038 397.982C320.649 396.703 318.432 389.57 317.744 388.211C317.054 386.855 328.52 379.418 329.562 381.565C330.607 383.716 330.607 383.716 330.607 383.716Z" fill="#F4B49A"/>
<path d="M315.017 386.804C314.206 383.273 318.267 382.836 318.267 382.836C318.267 382.836 320.912 379.757 327.237 380.124C333.566 380.488 332.6 388.746 332.6 388.746C332.6 388.746 328.222 388.09 326.319 388.572C326.319 388.572 326.087 392.097 326.293 392.971L323.908 392.759C323.908 392.759 324.174 389.63 323.028 389.481C321.881 389.332 321.498 396.107 319.363 397.599C319.363 397.599 319.341 397.121 319.075 396.652C318.65 395.904 317.988 394.656 317.415 393.196C316.487 391.153 315.432 388.613 315.017 386.804Z" fill="#02182B"/>
<path d="M324.618 390.241C324.618 390.241 323.731 387.853 321.631 389.402C320.104 390.529 321.675 394.561 323.161 394.542C324.65 394.523 325.251 392.328 324.618 390.241Z" fill="#F4B49A"/>
<path d="M320.697 396.87C320.697 396.87 321.01 398.137 321.349 398.435C321.691 398.73 323.297 400.035 326.085 400.912L325.809 403.443C325.812 403.44 320.415 401.321 320.697 396.87Z" fill="#C48A6F"/>
<path d="M349.143 414.009L350.052 413.576L345.925 404.818L343.609 405.907L347.106 413.329C347.499 414.158 348.316 414.399 349.143 414.009Z" fill="#EC4D10"/>
<path d="M348.123 407.067C348.123 407.067 345.542 408.482 345.719 408.929C345.896 409.372 346.229 409.429 346.229 409.429L345.431 410.494C345.431 410.494 345.301 411.498 346.432 411.346C346.432 411.346 346.213 412.271 347.287 411.995C347.287 411.995 347.414 412.67 347.936 412.629C348.456 412.587 350.081 411.609 350.081 411.609C350.081 411.609 350.331 411.248 349.84 410.684C349.84 410.684 350.128 410.038 349.606 409.556C349.606 409.556 349.754 409.002 349.184 408.489C349.184 408.489 349.422 407.228 348.399 406.937C348.402 406.937 348.234 407.006 348.123 407.067Z" fill="#DB9C7C"/>
<path d="M340.566 406.728L349.669 405.027L348.187 397.564L339.156 399.623L340.566 406.728Z" fill="#EC4D10"/>
<path d="M343.606 408.983C343.606 408.983 345.627 408.926 346.745 409.379C346.999 409.48 347.224 409.626 347.224 409.901C347.224 410.174 346.828 410.522 345.953 410.592C345.079 410.662 343.98 411.149 343.98 411.149C343.98 411.149 343.061 410.956 343.606 408.983Z" fill="#F4B49A"/>
<path d="M323.692 480.963C323.537 481.77 323.382 482.591 323.221 483.405L318.051 469.722C318.735 471.103 323.692 480.963 323.692 480.963Z" fill="#073551"/>
<path d="M416.794 455.002H500.253L473.95 535.782L476.408 536.583L503.816 452.415H414.915L387.771 535.782L390.228 536.583L416.794 455.002Z" fill="#385369"/>
<path d="M445.199 535.782L418.894 455.002H502.356L528.918 536.583L531.379 535.782L504.234 452.415H415.333L442.738 536.583L445.199 535.782Z" fill="#385369"/>
<path d="M511.18 477.852H409.03V480.44H511.18V477.852Z" fill="#385369"/>
<path d="M520.72 505.938H398.505V508.526H520.72V505.938Z" fill="#385369"/>
<path d="M503.87 294.683C503.87 294.683 504.459 292.659 503.557 291.864C502.79 291.186 502.286 289.757 502.131 289.32C501.922 288.731 500.614 287.166 501.352 286.897C502.09 286.628 503.636 289.374 504.076 289.887C504.516 290.397 505.014 287.423 505.53 286.951C506.049 286.479 510.927 287.581 510.351 289.583C509.774 291.585 507.836 293.343 507.804 293.713C507.772 294.084 507.44 295.186 507.44 295.186L503.87 294.683Z" fill="#E09E7F"/>
<path d="M505.289 287.385C505.289 287.385 507.465 281.373 507.943 281.094C508.425 280.816 508.742 280.952 508.561 281.522C508.38 282.092 506.629 287.391 506.629 287.391C506.629 287.391 510.398 280.711 510.74 280.394C510.943 280.211 511.573 280.439 511.507 280.752C511.44 281.066 508.083 287.904 508.083 287.904C508.083 287.904 511.614 281.671 511.979 281.493C512.299 281.338 512.828 281.693 512.596 282.174C512.365 282.656 509.416 288.623 509.416 288.623C509.416 288.623 512.27 284.249 512.669 284.281C512.913 284.3 513.467 284.474 512.698 285.579C511.925 286.685 510.379 289.485 510.379 289.485L505.289 287.385Z" fill="#E09E7F"/>
<path d="M419.996 349.277C419.996 349.277 418.067 350.125 417.161 349.337C416.392 348.665 414.909 348.355 414.453 348.257C413.842 348.127 412.119 347.034 411.948 347.801C411.777 348.567 414.703 349.742 415.267 350.11C415.831 350.477 412.949 351.361 412.549 351.937C412.15 352.514 413.88 357.208 415.79 356.372C417.7 355.539 419.188 353.385 419.553 353.306C419.917 353.226 420.965 352.754 420.965 352.754L419.996 349.277Z" fill="#E09E7F"/>
<path d="M412.949 351.636C412.949 351.636 407.276 354.579 407.06 355.092C406.845 355.605 407.022 355.903 407.567 355.649C408.109 355.396 413.132 352.963 413.132 352.963C413.132 352.963 407 357.575 406.734 357.955C406.579 358.18 406.886 358.776 407.19 358.668C407.494 358.56 413.829 354.335 413.829 354.335C413.829 354.335 408.112 358.652 407.985 359.036C407.874 359.374 408.296 359.85 408.739 359.558C409.186 359.267 414.716 355.561 414.716 355.561C414.716 355.561 410.753 358.963 410.836 359.355C410.887 359.593 411.13 360.122 412.125 359.213C413.12 358.304 415.695 356.403 415.695 356.403L412.949 351.636Z" fill="#E09E7F"/>
<path d="M417.962 349.375L421 353.119C421 353.119 440.549 345.042 443.539 342.235C443.539 342.235 444.331 341.931 448.376 338.723C449.241 338.035 450.086 337.386 450.862 336.819C450.862 336.819 451.062 336.642 451.391 336.35C451.395 336.347 451.395 336.347 451.395 336.347C452.848 335.048 456.792 331.526 456.792 331.526C456.792 331.526 466.595 326.319 462.601 320.694C462.601 320.694 460.938 319.192 458.388 320.405C455.835 321.619 452.145 324.805 451.271 325.644C450.397 326.481 444.73 331.314 444.426 331.621C443.295 332.768 439.444 336.198 437.458 337.696C433.952 340.338 417.962 349.375 417.962 349.375Z" fill="#02182B"/>
<path d="M473.874 309.62C473.871 309.627 473.871 309.627 473.871 309.627C473.123 311.22 472.214 312.731 471.213 314.014C467.754 318.448 459.693 318.559 459.573 306.38C459.551 304.074 459.839 302.202 460.301 300.685C461.952 295.281 465.829 294.382 465.829 294.382C468.695 294.223 473.709 294.933 475.378 298.664C476.569 301.315 475.711 305.708 473.874 309.62Z" fill="#F4B49A"/>
<path d="M473.874 309.62C473.871 309.627 473.871 309.627 473.871 309.627C473.871 309.627 473.459 309.737 471.97 306.732C471.673 306.13 471.441 306.561 471.312 306.294L468.939 305.37C468.939 305.37 471.286 301.445 468.217 300.359C465.088 299.25 460.305 300.691 460.305 300.691C461.328 291.018 465.832 294.388 465.832 294.388C468.698 294.23 474.824 294.404 476.497 298.132C477.681 300.777 475.711 305.708 473.874 309.62Z" fill="#02182B"/>
<path d="M470.83 304.47C471.007 303.656 472.613 302.956 473.298 304.704C473.982 306.453 471.695 308.309 471.093 307.926C470.488 307.539 470.539 305.816 470.83 304.47Z" fill="#F4B49A"/>
<path d="M439.995 446.137C439.995 446.137 436.669 448.854 433.873 449.459C431.076 450.064 429.609 451.496 429.587 453.156C429.565 454.816 437.635 455.908 440.835 454.236C445.611 451.74 446.096 452.491 446.628 451.243C447.16 449.995 446.732 446.691 446.767 446.292C446.808 445.801 439.995 446.137 439.995 446.137Z" fill="#2E2626"/>
<path d="M440.224 445.234C440.224 445.234 439.859 446.59 439.913 446.618C439.967 446.647 446.216 447.347 446.026 446.26C445.874 445.38 445.656 444.42 445.656 444.42L440.224 445.234Z" fill="#2E2626"/>
<path d="M479.744 448.313C479.744 448.313 477.675 451.445 475.049 452.076C472.462 452.697 471.505 453.682 471.378 455.246C471.252 456.808 477.482 458.857 481.863 456.111C484.739 454.306 485.812 454.41 486.392 453.264C486.972 452.117 486.531 448.889 486.588 448.515C486.658 448.056 479.744 448.313 479.744 448.313Z" fill="#2E2626"/>
<path d="M480.44 447.169C480.44 447.169 480.31 448.49 480.361 448.519C480.412 448.55 486.179 449.57 486.144 448.528C486.116 447.702 485.78 446.675 485.78 446.675L480.44 447.169Z" fill="#2F6B8C"/>
<path d="M456.618 367.603C456.618 367.603 448.779 387.051 446.523 393.656C443.559 402.344 441.924 410 441.551 414.165C441.082 419.404 439.241 444.129 438.912 445.662C438.583 447.195 447.711 446.678 447.711 446.678C447.711 446.678 452.846 415.501 454.246 409.92C455.547 404.726 467.875 381.154 469.063 382.573C470.251 383.992 474.197 408.118 475.078 412.214C475.958 416.312 478.315 448.569 478.315 448.569C478.315 448.569 486.325 449.852 487.941 448.569C487.941 448.569 486.677 419.806 486.116 412.125C485.904 409.198 487.969 377.074 483.019 364.122C480.406 357.274 456.618 367.603 456.618 367.603Z" fill="#F9B21E"/>
<path d="M465.079 318.771C465.079 318.771 458.294 320.165 457.417 320.944C456.46 321.774 454.553 330.164 454.452 332.429C454.35 334.691 454.933 344.019 455.89 347.538C456.846 351.057 455.044 365.709 454.442 370.587C454.442 370.587 466.203 375.931 486.085 371.765C486.085 371.765 482.591 356.6 483.18 351.776C483.934 345.596 485.942 332.065 485.942 332.065C485.942 332.065 487.767 319.17 486.085 319.49C480.574 320.529 473.456 318.771 473.456 318.771H465.079Z" fill="#02182B"/>
<path d="M463.561 320.342C463.561 320.342 465.642 321.907 472.604 318.837C472.604 318.837 471.91 315.046 473.276 310.589C474.641 306.133 464.299 315.236 464.299 315.236C464.413 315.315 464.432 315.762 464.369 316.383C464.366 316.424 464.359 316.462 464.356 316.506C464.305 316.956 464.21 317.485 464.077 318.027C464.061 318.093 464.042 318.16 464.027 318.226C463.634 319.715 463.561 319.04 463.561 320.342Z" fill="#F4B49A"/>
<path d="M464.074 318.023C469.063 318.663 471.784 313.291 471.863 313.13C468.448 318.106 464.353 316.49 464.353 316.49C464.305 316.94 464.21 317.482 464.074 318.023Z" fill="#A77860"/>
<path d="M463.589 319.091C463.589 319.091 461.996 321.463 464.217 321.869C466.44 322.274 470.976 321.78 473.45 318.771C473.453 318.771 466.934 317.52 463.589 319.091Z" fill="#F4B49A"/>
<path d="M475.059 331.545C474.353 330.088 476.136 326.287 479.164 323.63C481.558 321.53 484.111 320.225 485.359 319.756C486.607 319.29 495.118 316.547 495.527 315.483C496.046 314.134 498.308 307.514 498.492 306.934C498.859 305.781 503.107 292.681 503.107 292.681L508.399 293.894C508.399 293.894 504.453 312.835 503.962 315.265C503.639 316.864 503.366 319.689 499.803 321.964C496.183 324.276 488.245 330.139 487.447 330.449C486.642 330.753 478.204 338.035 475.059 331.545Z" fill="#02182B"/>
<path d="M590.094 524.588C590.094 524.588 588.678 525.025 587.142 526.149C585.602 527.274 583.531 529.111 581.257 529.523C578.982 529.935 576.575 529.897 576.943 532.332C577.31 534.768 584.801 535.969 591.554 533.907C598.307 531.845 598.408 531.658 598.408 531.059C598.408 530.46 597.385 524.423 597.078 524.217C596.768 524.015 590.094 524.588 590.094 524.588Z" fill="#4B5182"/>
<path d="M629.44 522.339C629.44 522.339 626.839 525.031 624.597 525.484C622.354 525.937 619.415 526.666 619.263 528.136C619.111 529.608 620.048 529.988 620.134 530.08C620.694 530.511 631.384 530.898 635.521 529.339C638.061 528.383 635.135 520.432 635.135 520.432L629.44 522.339Z" fill="#4B5182"/>
<path d="M606.185 406.68C606.185 406.68 598.535 415.204 598.789 412.682C598.941 411.165 598.234 408.536 597.645 406.68C597.256 405.451 596.92 404.564 596.92 404.564C596.983 404.444 605.244 392.724 604.943 396.389C604.642 400.073 606.185 406.68 606.185 406.68Z" fill="#F4B49A"/>
<path d="M603.359 470.919C603.359 470.919 599.998 482.629 600.565 484.71C601.132 486.791 606.91 494.367 607.692 495.505C608.747 497.034 625.487 523.308 625.674 523.749C625.864 524.189 635.322 521.915 635.699 519.897C635.699 519.897 622.44 492.682 619.288 489.087C616.137 485.495 615.408 481.767 615.912 477.608C616.415 473.45 622.566 459.969 621.619 454.423C620.679 448.88 603.926 465.069 603.359 470.919Z" fill="#F4A00B"/>
<path d="M597.129 455.332C597.129 455.332 574.551 472.436 572.024 475.936C569.496 479.433 572.331 484.634 572.708 486.335C573.085 488.036 588.307 521.718 588.497 524.648C588.497 524.648 598.712 525.5 600.508 523.229C600.508 523.229 589.397 491.257 587.788 485.774C586.182 480.291 591.709 478.961 596.153 476.975C600.597 474.989 620.099 463.545 621.233 459.24C622.269 455.31 621.245 452.345 621.245 452.345C621.245 452.345 615.785 448.813 597.129 455.332Z" fill="#F9B21E"/>
<path d="M595.925 420.728C595.925 420.728 580.782 415.438 581.044 412.15C581.307 408.862 594.598 392.632 594.598 392.632L599.096 395.559L592.628 412.505L604.1 416.825L595.925 420.728Z" fill="#22243B"/>
<path d="M607.065 406.211C607.065 406.211 605.326 402.67 605.294 401.913C605.294 401.913 597.674 407.912 596.917 409.331C596.917 409.331 597.322 411.947 597.04 413.24L607.065 406.211Z" fill="#02182B"/>
<path d="M607.065 406.211C607.065 406.211 605.551 405.454 603.219 406.968C600.888 408.482 592.875 416.505 591.424 417.012C591.424 417.012 594.873 432.029 595.063 436.001C595.253 439.973 597.854 460.748 596.34 463.396C596.34 463.396 602.149 461.809 609.32 459.44C616.795 456.97 623.722 452.779 623.722 452.779C623.722 452.779 618.616 440.29 618.103 436.273C617.568 432.083 613.403 411.279 607.065 406.211Z" fill="#02182B"/>
<path d="M587.693 396.503C587.693 396.503 586.442 395.214 586.252 392.202C586.046 388.927 586.16 390.086 586.16 390.086L587.693 396.503Z" fill="#F4B49A"/>
<path d="M595.808 395.005C595.808 395.005 592.089 393.098 590.236 393.101C588.266 393.104 586.264 394.466 586.264 394.466C586.264 394.466 585.425 391.445 586.141 390.244C586.856 389.047 595.808 395.005 595.808 395.005Z" fill="#5C5C5C"/>
<path d="M602.286 398.654C602.286 398.654 601.326 404.092 597.655 406.674C597.652 406.677 597.648 406.677 597.645 406.68C597.256 405.451 596.92 404.564 596.92 404.564C596.977 404.533 600.667 402.493 602.286 398.654Z" fill="#A87860"/>
<path d="M593.112 388.135C593.112 388.135 590.623 395.534 590.372 397.251C590.125 398.967 585.022 395.648 585.022 395.648C585.022 395.648 587.341 389.364 587.848 386.304C588.358 383.241 593.112 388.135 593.112 388.135Z" fill="#EFAA88"/>
<path d="M609.228 416.613C608.832 414.507 606.58 412.283 604.439 412.16C599.738 411.887 589.111 411.859 588.769 411.254C588.332 410.484 593.489 389.839 593.489 389.839C593.489 389.839 589.153 388.068 586.451 387.824C586.451 387.824 574.855 418.457 576.229 419.378C581.228 422.736 603.498 423.578 603.498 423.578C603.498 423.578 608.195 422.479 609.082 419.34C609.367 418.32 609.377 417.408 609.228 416.613Z" fill="#02182B"/>
<path d="M591.129 377.185C591.129 377.185 590.477 377.739 590.309 378.122C590.309 378.122 590.059 378.841 589.849 379.342C589.783 379.5 589.72 379.636 589.672 379.722C589.466 380.074 588.912 380.783 588.655 381.765C588.399 382.747 587.848 386.301 587.848 386.301L590.797 387.308L593.112 388.135C593.112 388.135 597.454 384.6 597.8 383.713C597.831 383.627 597.863 383.539 597.885 383.456C598.104 382.677 597.939 382.006 598.006 381.584C598.031 381.429 598.164 379.871 597.831 379.545C597.369 379.088 596.865 378.962 596.431 379.054C596.431 379.054 595.487 378.202 594.635 378.16C594.635 378.16 593.79 377.346 592.713 377.597C592.71 377.597 591.763 376.865 591.129 377.185Z" fill="#EFAA88"/>
<path d="M587.23 389.601C587.23 389.601 586.277 394.219 587.525 394.517C588.554 394.764 587.819 399.237 587.759 399.949C587.702 400.662 589.679 400.573 590.192 400.865C590.705 401.159 593.378 405.857 594.937 405.556C596.498 405.255 602.611 400.833 603.891 398.343C605.17 395.854 604.078 386.665 601.734 383.355C599.393 380.042 588.931 381.524 587.23 389.601Z" fill="#F4B49A"/>
<path d="M587.021 390.282C587.021 390.282 585.415 389.136 586.385 383.909C587.503 377.882 598.63 381.325 599.52 381.29C600.41 381.255 606.096 380.726 605.725 389.041C605.326 397.973 604.911 397.805 604.911 397.805C604.911 397.805 602.992 393.063 601.398 393.165C599.669 393.272 596.891 393.709 596.891 393.709C596.891 393.709 597.176 389.566 594.829 389.696C592.476 389.826 588.995 388.794 587.021 390.282Z" fill="#02182B"/>
<path d="M597.914 393.963C597.892 393.494 597.81 391.394 599.425 391.229C601.041 391.065 601.247 393.618 600.48 395.372C599.717 397.13 598.035 396.576 597.914 393.963Z" fill="#F4B49A"/>
<path d="M0 362.19H31.7314V385.189V390.035L26.8884 385.189H0V362.19Z" fill="#EC4D10"/>
<path d="M70.3963 521.161L64.0171 478.73L65.2461 478.54L71.6253 520.971L70.3963 521.161Z" fill="#385369"/>
<path d="M62.6075 521.161L56.2251 478.73L57.4541 478.54L63.8364 520.971L62.6075 521.161Z" fill="#385369"/>
<path d="M24.2343 521.161L23.0054 520.971L29.3846 478.54L30.6136 478.73L24.2343 521.161Z" fill="#385369"/>
<path d="M66.0124 479.16L71.0106 426.581C71.0106 426.581 62.2685 425.438 56.9884 425.72L49.0508 479.16H66.0124Z" fill="#F9B21E"/>
<path d="M66.0156 476.487H49.0508V479.161H66.0156V476.487Z" fill="#FAB46C"/>
<path d="M37.9524 477.019L35.3013 426.911C35.3013 426.911 57.4227 424.506 71.011 426.578L37.9524 477.019Z" fill="#F9B21E"/>
<path d="M55.617 410.687C55.617 410.687 59.0315 400.668 52.5129 397.564C45.9944 394.457 40.4608 398.948 39.4156 401.378C38.3703 403.807 38.6459 408.226 39.5391 411.305C40.4323 414.383 40.3025 419.074 38.364 420.642C36.4255 422.21 34.0246 424.814 34.145 430.116C34.2178 433.404 47.0871 421.703 47.0871 421.703L55.617 410.687Z" fill="#02182B"/>
<path d="M46.9193 518.484C46.9193 518.484 46.7166 525.563 47.727 525.988C48.7374 526.412 52.5637 523.951 54.2519 521.519C55.9402 519.083 52.1361 513.416 51.5121 510.293C51.2524 508.985 48.2781 506.629 46.8275 507.303C45.3768 507.978 44.3188 509.707 44.3188 509.707C44.3188 509.707 48.0121 512.235 46.9193 518.484Z" fill="#1E2235"/>
<path d="M44.3218 509.707C44.3218 509.707 45.5761 512.124 46.2222 513.996C46.8684 515.871 46.9888 521.063 47.3942 521.42C47.7996 521.782 51.0082 520.163 51.4358 518.221C51.8634 516.28 50.5648 512.4 49.3263 510.36C48.0879 508.32 46.8304 507.3 46.8304 507.3C46.8304 507.3 44.6449 507.728 44.3218 509.707Z" fill="#DE9673"/>
<path d="M51.5151 510.29L54.9581 515.32L54.3088 515.767L51.645 511.88L51.5151 510.29Z" fill="#1E2235"/>
<path d="M39.1116 454.695C39.1116 454.695 40.7966 457.54 39.1116 459.611C37.4265 461.683 26.0997 467.371 26.1821 470.659C26.2644 473.947 28.3391 479.091 29.0866 480.396C29.831 481.701 32.5835 487.117 34.012 490.285C35.4405 493.452 43.7043 508.614 45.3229 512.032C46.9383 515.45 45.9437 498.361 45.9437 498.361L37.6799 474.127L56.9886 455.316C56.9886 455.316 54.651 450.115 39.1116 454.695Z" fill="#DE9673"/>
<path d="M46.4601 422.603C46.4601 422.603 41.1008 423.79 38.9754 425.032C36.8501 426.274 32.1274 431.991 32.1274 434.449C32.1274 436.907 52.7823 439.203 52.7823 439.203L56.6973 453.495C56.6973 453.495 67.1371 450.948 68.3788 448.835C69.6204 446.723 64.2674 431.687 63.5231 428.516C62.7787 425.346 58.8733 423.211 54.5212 422.603C50.1692 421.995 46.4601 422.603 46.4601 422.603Z" fill="#4392F1"/>
<path d="M59.1235 455.164C59.1235 455.164 58.7497 457.609 59.7443 458.645C60.7389 459.681 65.319 465.721 62.8927 471.654C60.666 477.102 56.3456 476.997 56.3456 476.997H49.6623C49.6623 476.997 51.604 486.804 50.9768 493.265C50.3497 499.727 47.4008 514.484 47.3406 515.231C47.2773 515.976 44.5152 518.307 43.7075 517.129C43.7075 517.129 43.6315 508.244 43.1976 504.886C42.7637 501.532 40.9107 488.109 40.3532 486.119C39.7926 484.13 36.5016 478.103 36.5016 477.482C36.5016 476.861 33.2835 467.134 40.3057 464.647C47.3248 462.161 49.808 455.218 59.1235 455.164Z" fill="#F4B49A"/>
<path d="M40.3783 523.98C40.3783 523.98 35.7697 529.358 36.286 530.324C36.8054 531.29 41.3254 531.784 44.1697 530.951C47.0141 530.118 47.6191 523.324 49.1014 520.499C49.7222 519.317 48.8892 515.618 47.3372 515.228C45.7851 514.842 43.8751 515.52 43.8751 515.52C43.8751 515.52 45.158 519.808 40.3783 523.98Z" fill="#292C47"/>
<path d="M43.8784 515.523C43.8784 515.523 43.3368 518.19 42.6589 520.055C41.9811 521.918 38.8105 526.029 38.9023 526.568C38.991 527.103 42.5006 527.863 44.0558 526.621C45.6078 525.383 47.0395 521.547 47.3594 519.184C47.6793 516.821 47.3436 515.234 47.3436 515.234C47.3436 515.234 45.3734 514.186 43.8784 515.523Z" fill="#F4B49A"/>
<path d="M49.1017 520.499L48.6202 526.577L47.8315 526.514L48.2053 521.816L49.1017 520.499Z" fill="#292C47"/>
<path d="M62.8925 471.654C60.7893 477.175 56.3454 476.997 56.3454 476.997H49.6621C49.6621 476.997 46.8748 472.579 40.0458 471.822C38.5317 471.654 36.8213 471.663 34.8987 471.945C34.8765 471.948 34.8512 471.951 34.829 471.955C25.7575 473.298 27.5091 476.627 27.5376 476.715C26.7837 474.875 25.9919 471.948 26.1819 470.371C27.053 463.19 37.4263 461.686 39.1114 459.614C40.7965 457.543 39.1114 454.698 39.1114 454.698C54.6508 450.118 56.9884 455.319 56.9884 455.319C57.6694 455.224 59.4147 454.22 60.159 454.214C60.159 454.214 60.9382 455.911 61.4862 457.445C61.9676 458.797 65.1731 465.664 62.8925 471.654Z" fill="#02182B"/>
<path d="M56.4436 432.121L58.7432 453.498H28.4815L26.1851 432.121H56.4436Z" fill="#E0E0E0"/>
<path d="M61.1539 451.575H56.0986V453.498H61.1539V451.575Z" fill="#E0E0E0"/>
<path d="M104.006 453.498H7.62695V456.409H104.006V453.498Z" fill="#98A6B1"/>
<path d="M49.8082 399.271C49.8082 399.271 56.5865 401.276 55.6205 410.687C54.6512 420.094 50.2231 419.609 49.8082 419.679C49.3933 419.749 44.1353 420.094 42.4756 408.679C40.8127 397.266 49.8082 399.271 49.8082 399.271Z" fill="#F4B49A"/>
<path d="M53.0385 417.95C53.0385 417.95 52.6806 421.067 53.2793 423.002C53.8779 424.94 45.3828 424.994 45.386 423.401C45.3923 421.592 46.2539 420.078 45.4398 416.977C44.629 413.876 53.0385 417.95 53.0385 417.95Z" fill="#F4B49A"/>
<path d="M48.0565 403.468C48.0565 403.468 51.7402 409.328 55.6171 410.687C55.6171 410.687 57.733 400.855 48.9909 398.793C40.2456 396.734 41.6171 408.726 42.2696 411.922C42.2696 411.922 44.0908 407.218 48.0565 403.468Z" fill="#02182B"/>
<path d="M46.4473 418.346C46.4473 418.346 49.1301 421.139 52.5604 418.637C52.5604 418.637 52.2785 420.424 49.8111 420.655C47.3436 420.886 46.4473 418.346 46.4473 418.346Z" fill="#A77860"/>
<path d="M43.1152 402.585C43.1152 402.585 45.0537 398.828 48.3288 398.66C51.604 398.492 53.5519 401.333 53.5519 401.333C53.5519 401.333 52.2723 398.134 48.3352 398.134C44.3981 398.134 43.1152 402.585 43.1152 402.585Z" fill="#1E2235"/>
<path d="M54.1473 422.555C54.1473 422.555 54.027 429.067 48.864 429.261C43.698 429.454 44.7749 423.014 44.7749 423.014C44.7749 423.014 48.5505 421.481 54.1473 422.555Z" fill="#F4B49A"/>
<path d="M104.006 456.409H101.865V529.865H104.006V456.409Z" fill="#98A6B1"/>
<path d="M9.76814 456.409H7.62695V529.865H9.76814V456.409Z" fill="#98A6B1"/>
<path d="M265.209 130.213C263.132 129.612 261.333 128.414 260.091 126.793C258.681 124.952 258.149 122.789 258.593 120.698C259.166 116.514 258.773 111.988 258.327 108.846C254.123 103.762 252.711 96.9775 254.548 90.6458C257.598 80.1267 268.64 74.0516 279.159 77.1018C289.678 80.152 295.753 91.1937 292.703 101.713C291.04 107.44 286.96 112.058 281.484 114.417C279.206 118.057 277.578 121.484 276.644 124.61C275.697 128.88 270.905 131.477 265.941 130.4C265.694 130.343 265.45 130.283 265.209 130.213ZM278.709 78.6602C269.052 75.857 258.913 81.4349 256.113 91.0955C254.405 96.9806 255.755 103.29 259.72 107.975L259.869 108.152L259.904 108.383C260.379 111.643 260.819 116.467 260.199 120.949L260.189 121.009C259.838 122.637 260.259 124.341 261.38 125.804C262.533 127.309 264.275 128.376 266.283 128.81C270.385 129.7 274.322 127.645 275.063 124.233L275.07 124.202L275.079 124.173C276.074 120.838 277.813 117.192 280.245 113.334L280.382 113.116L280.619 113.017C285.76 110.879 289.596 106.594 291.141 101.26C293.948 91.5992 288.367 81.4634 278.709 78.6602Z" fill="#F9B21E"/>
<path d="M262.996 122.827L264.893 101.108L268.545 105.688L271.921 103.224L273.689 106.572L278.551 103.94L271.592 124.632L270.053 124.113L275.694 107.332L273.021 108.783L271.361 105.644L268.244 107.918L266.157 105.302L264.617 122.969L262.996 122.827Z" fill="#F9B21E"/>
<path d="M273.223 129.954L259.454 126.97L258.251 132.52L272.02 135.504L273.223 129.954Z" fill="#F9B21E"/>
<path d="M276.667 124.767L258.469 120.823L256.533 129.753L274.732 133.697L276.667 124.767Z" fill="#F9B21E"/>
<path d="M12.8628 270.36L11.8809 270.024L20.1162 246.053L38.5127 240.96L44.8412 214.683L59.0092 208.234L61.9612 187.826L62.9906 187.975L59.9562 208.943L45.7313 215.417L39.3774 241.799L20.9207 246.908L12.8628 270.36Z" fill="#4392F1"/>
<path d="M41.0688 239.601C42.0507 240.773 41.8955 242.521 40.7235 243.503C39.5516 244.485 37.8031 244.33 36.8212 243.158C35.8393 241.986 35.9945 240.238 37.1665 239.256C38.3416 238.274 40.0869 238.429 41.0688 239.601Z" fill="white"/>
<path d="M41.0561 243.902C39.6656 245.065 37.5878 244.881 36.4222 243.49C35.2597 242.1 35.4434 240.022 36.834 238.857C38.2245 237.694 40.3023 237.878 41.4679 239.268C42.6304 240.659 42.4466 242.737 41.0561 243.902ZM37.5023 239.655C36.552 240.45 36.4254 241.872 37.2204 242.825C38.0154 243.776 39.4376 243.902 40.391 243.107C41.3412 242.312 41.4679 240.89 40.6729 239.937C39.8747 238.983 38.4525 238.857 37.5023 239.655Z" fill="#4392F1"/>
<path d="M47.4858 213.432C48.4677 214.603 48.3125 216.352 47.1405 217.334C45.9686 218.316 44.2201 218.16 43.2382 216.989C42.2563 215.817 42.4115 214.068 43.5835 213.086C44.7586 212.104 46.5039 212.26 47.4858 213.432Z" fill="white"/>
<path d="M47.4736 217.73C46.0831 218.892 44.0053 218.708 42.8397 217.318C41.6772 215.927 41.8609 213.85 43.2514 212.684C44.6419 211.522 46.7198 211.705 47.8854 213.096C49.0479 214.489 48.8641 216.567 47.4736 217.73ZM43.9198 213.482C42.9695 214.277 42.8428 215.699 43.6379 216.653C44.4329 217.603 45.8551 217.73 46.8085 216.935C47.7587 216.14 47.8854 214.717 47.0904 213.764C46.2922 212.814 44.87 212.687 43.9198 213.482Z" fill="#4392F1"/>
<path d="M61.4321 206.805C62.414 207.977 62.2588 209.726 61.0868 210.708C59.9149 211.689 58.1664 211.534 57.1845 210.362C56.2026 209.19 56.3578 207.442 57.5298 206.46C58.7049 205.478 60.4502 205.633 61.4321 206.805Z" fill="white"/>
<path d="M61.4194 211.103C60.0289 212.266 57.9511 212.082 56.7855 210.692C55.623 209.301 55.8067 207.223 57.1972 206.058C58.5877 204.895 60.6656 205.079 61.8312 206.469C62.9936 207.863 62.8099 209.941 61.4194 211.103ZM57.8656 206.856C56.9153 207.651 56.7886 209.073 57.5837 210.027C58.3787 210.977 59.8009 211.103 60.7543 210.308C61.7045 209.513 61.8312 208.091 61.0362 207.138C60.238 206.188 58.8158 206.061 57.8656 206.856Z" fill="#4392F1"/>
<path d="M22.7485 244.938C23.7304 246.11 23.5752 247.858 22.4032 248.84C21.2313 249.822 19.4828 249.667 18.5009 248.495C17.519 247.323 17.6742 245.575 18.8462 244.593C20.0181 243.611 21.7666 243.766 22.7485 244.938Z" fill="white"/>
<path d="M22.7358 249.236C21.3453 250.399 19.2675 250.215 18.1019 248.824C16.9394 247.434 17.1231 245.356 18.5136 244.19C19.9041 243.028 21.982 243.212 23.1444 244.602C24.31 245.996 24.1263 248.074 22.7358 249.236ZM19.1788 244.989C18.2286 245.784 18.1019 247.206 18.8969 248.159C19.6919 249.11 21.1141 249.236 22.0675 248.441C23.0177 247.646 23.1444 246.224 22.3494 245.271C21.5544 244.32 20.1322 244.194 19.1788 244.989Z" fill="#4392F1"/>
<path d="M549.106 204.083H593.669V200.96H549.106V204.083Z" fill="#EC4D10"/>
<path d="M549.106 219.981H593.669V206.849H549.106V219.981Z" fill="#EC4D10"/>
<path d="M528.174 226.36H554.464V224.396H528.174V226.36Z" fill="#F9B21E"/>
<path d="M528.174 232.532H554.464V227.217H528.174V232.532Z" fill="#F9B21E"/>
<path d="M601.062 311.971L568.982 294.03L580.008 293.302L601.062 311.971Z" fill="#D6D6D6"/>
<path d="M601.062 311.971L591.19 296.092L582.907 295.874L601.062 311.971Z" fill="#E8E8E8"/>
<path d="M576.359 298.157L575.716 302.199L601.062 311.971L576.359 298.157Z" fill="#C2C2C2"/>
<path d="M47.7394 329.41C47.7078 329.201 46.9761 324.181 46.9761 316.528C46.9761 315.718 46.9856 314.878 47.0046 314.017L49.5385 314.07C49.5195 314.916 49.5132 315.737 49.5132 316.528C49.5132 323.978 50.2417 328.989 50.2512 329.04L47.7394 329.41ZM50.872 299.095L48.3697 298.689C49.2281 293.403 50.4856 288.373 52.1042 283.733L54.4956 284.569C52.9277 289.067 51.7082 293.954 50.872 299.095ZM570.031 287.676C569.901 287.527 566.775 284.011 559.696 279.637L561.026 277.48C568.425 282.051 571.795 285.842 571.935 286.001L570.031 287.676ZM351.722 279.843L351.715 277.309C356.796 277.3 361.889 277.173 366.852 276.939L366.973 279.469C361.971 279.707 356.84 279.83 351.722 279.843ZM336.47 279.549C331.504 279.349 326.382 279.045 321.248 278.64L321.447 276.112C326.547 276.511 331.637 276.815 336.572 277.015L336.47 279.549ZM382.196 278.386L381.955 275.865C386.978 275.387 392.034 274.778 396.981 274.056L397.345 276.565C392.36 277.29 387.26 277.905 382.196 278.386ZM306.076 277.182C301.185 276.628 296.098 275.976 290.964 275.241L291.322 272.732C296.434 273.464 301.492 274.113 306.361 274.661L306.076 277.182ZM412.391 273.98L411.9 271.494C415.53 270.775 419.198 269.98 422.799 269.125C424.113 268.814 425.415 268.51 426.711 268.219L427.268 270.689C425.982 270.981 424.69 271.278 423.382 271.589C419.749 272.454 416.052 273.258 412.391 273.98ZM546.316 272.91C541.857 271.092 537.061 269.498 532.053 268.177L532.699 265.729C537.809 267.078 542.712 268.706 547.27 270.566L546.316 272.91ZM275.915 272.894C271.088 272.083 266.185 271.206 260.927 270.214L261.396 267.725C266.638 268.713 271.525 269.587 276.337 270.395L275.915 272.894ZM60.9033 271.126L58.7589 269.774C61.5843 265.298 64.9354 261.304 68.7205 257.909L70.4151 259.793C66.8042 263.037 63.6051 266.847 60.9033 271.126ZM442.111 267.668L441.658 265.175C446.751 264.253 451.825 263.458 456.738 262.812L457.067 265.324C452.193 265.963 447.163 266.752 442.111 267.668ZM245.993 267.284C241.004 266.271 236.04 265.235 231.099 264.186L231.625 261.706C236.56 262.752 241.517 263.791 246.496 264.801L245.993 267.284ZM517.309 265.127C512.501 264.386 507.455 263.841 502.314 263.509L502.479 260.981C507.693 261.32 512.814 261.871 517.695 262.625L517.309 265.127ZM472.116 263.765L471.926 261.238C477.108 260.851 482.245 260.626 487.193 260.576L487.218 263.11C482.328 263.163 477.244 263.382 472.116 263.765ZM216.231 261.003C211.258 259.933 206.305 258.868 201.373 257.823L201.899 255.343C206.837 256.388 211.791 257.453 216.767 258.523L216.231 261.003ZM186.499 254.741C181.139 253.661 176.268 252.714 171.599 251.852L172.058 249.36C176.74 250.224 181.627 251.171 186.999 252.255L186.499 254.741ZM82.6984 251.583L81.5962 249.303C86.0464 247.149 90.9655 245.476 96.2107 244.33L96.7524 246.807C91.6971 247.912 86.9681 249.518 82.6984 251.583ZM156.655 249.262C151.483 248.432 146.437 247.697 141.657 247.079L141.98 244.567C146.785 245.188 151.859 245.926 157.057 246.759L156.655 249.262ZM126.605 245.429L126.409 245.413C122.691 245.084 119.057 244.932 115.592 244.916C114.227 244.916 112.89 244.941 111.579 244.992L111.481 242.461C112.827 242.41 114.24 242.385 115.602 242.382C119.133 242.382 122.846 242.553 126.634 242.889L126.824 242.904L126.605 245.429Z" fill="#E0E0E0"/>
</g>
<defs>
<clipPath id="clip0">
<rect width="661" height="537.647" fill="white"/>
</clipPath>
</defs>
</svg>
